# xmcd
#
# Track frame offsets: 
#        150
#        10441
#        25907
#        45074
#        57400
#        74259
#        88970
#        101821
#        116242
#        132977
#        151524
#        164858
#        182798
#        202931
#        215901
#        232781
#
# Disc length: 3270 seconds
#
# Revision: 0
# Processed by: cddbd v1.5.2PL0 Copyright (c) Steve Scherf et al.
# Submitted via: ExactAudioCopy v0.95b4
#
DISCID=e00cc410
DTITLE=Tom Waits - Bad As Me (Limited Edition)
DYEAR=2011
DGENRE=Rock
TTITLE0=Chicago 
TTITLE1=Raised Right Men 
TTITLE2=Talking At The Same Time 
TTITLE3=Get Lost 
TTITLE4=Face To The Highway
TTITLE5=Pay Me 
TTITLE6=Back In The Crowd 
TTITLE7=Bad As Me 
TTITLE8=Kiss Me 
TTITLE9=Satisfied 
TTITLE10=Last Leaf 
TTITLE11=Hell Broke Luce 
TTITLE12=New Year's Eve 
TTITLE13=She Stole The Blush 
TTITLE14=Tell Me 
TTITLE15=After You Die
EXTD=
EXTT0=
EXTT1=
EXTT2=
EXTT3=
EXTT4=
EXTT5=
EXTT6=
EXTT7=
EXTT8=
EXTT9=
EXTT10=
EXTT11=
EXTT12=
EXTT13=
EXTT14=
EXTT15=
PLAYORDER=
